<?xml version="1.0" standalone="no"?>
<!DOCTYPE svg PUBLIC "-//W3C//DTD SVG 1.1//EN" "http://www.w3.org/Graphics/SVG/1.1/DTD/svg11.dtd" >
<svg xmlns="http://www.w3.org/2000/svg">
<metadata>
This is a custom SVG webfont generated by Font Squirrel.
Copyright   : Copyright 2004 Process Type Foundry All rights reserved
Foundry     : Process Type Foundry
</metadata>
<defs>
<font id="KlavikaBoldBoldItalic" horiz-adv-x="1261" >
<font-face units-per-em="2048" ascent="1638" descent="-410" />
<missing-glyph horiz-adv-x="430" />
<glyph unicode=" "  horiz-adv-x="430" />
<glyph unicode="&#x09;" horiz-adv-x="430" />
<glyph unicode="&#xa0;" horiz-adv-x="430" />
<glyph unicode="!" horiz-adv-x="573" d="M47 0l59 340h295l-59 -340h-295zM197 475l2 356l100 574h287l-101 -574l-125 -356h-163z" />
<glyph unicode="&#x22;" horiz-adv-x="778" d="M172 897l88 508h195l-88 -508h-195zM541 897l88 508h194l-88 -508h-194z" />
<glyph unicode="#" horiz-adv-x="1382" d="M51 324l41 190h244l59 303h-250l39 191h250l64 315h202l-63 -315h299l63 315h203l-63 -315h233l-39 -191h-233l-60 -303h240l-41 -190h-238l-63 -324h-203l64 324h-299l-64 -324h-203l64 324h-246zM539 514h299l59 303h-299z" />
<glyph unicode="$" horiz-adv-x="1007" d="M25 47l69 238q166 -57 326 -58q102 0 137 31t51 121q10 55 10 76q0 43 -29.5 61.5t-133.5 44.5q-170 43 -225.5 89t-55.5 149q0 66 19 166q39 213 116.5 285.5t284.5 88.5l41 236h227l-41 -238q92 -8 197 -34l-57 -246q-150 35 -318 35q-90 0 -120.5 -25t-43.5 -109 q-8 -53 -8 -67q0 -41 29.5 -57.5t142.5 -47.5q166 -43 220.5 -91t54.5 -140q0 -55 -21 -174q-20 -127 -54 -202t-110 -126t-205 -65l-41 -236h-227l41 232q-147 12 -276 63z" />
<glyph unicode="%" horiz-adv-x="1783" d="M150 938l26 152q29 162 109 228t266 66q164 0 231.5 -81.5t42.5 -221.5l-24 -143q-27 -150 -105 -222.5t-268 -72.5q-331 0 -278 295zM367 922q-10 -51 9 -71t81 -20q59 0 84.5 19.5t36.5 71.5l32 184q8 49 -12 68.5t-78 19.5q-59 0 -85.5 -19.5t-35.5 -68.5zM555 47 l567 1337l156 -65l-565 -1339zM1006 274l26 152q29 162 109 228.5t266 66.5q164 0 231.5 -82t42.5 -221l-24 -144q-27 -150 -104.5 -222t-268.5 -72q-331 -1 -278 294zM1223 258q-10 -51 9 -70.5t81 -19.5q59 0 84.5 19.5t36.5 70.5l32 184q8 49 -12 68.5t-78 19.5 q-59 0 -85.5 -19t-35.5 -69z" />
<glyph unicode="&#x26;" horiz-adv-x="1478" d="M57 242q0 43 9 84l61 331q33 182 137.5 271.5t300.5 89.5q160 0 255 -68.5t95 -175.5q0 -100 -51 -176h211q115 0 193 28.5t164 92.5l102 -164q-166 -156 -420 -166q-111 -205 -281.5 -307t-422.5 -102q-353 0 -353 262zM342 260q0 -51 70 -51q137 0 236.5 41t182.5 139 h-245l-51 209q131 35 131 129q0 66 -105 66q-123 0 -141 -101l-72 -391q-6 -31 -6 -41z" />
<glyph unicode="'" horiz-adv-x="409" d="M172 897l88 508h195l-88 -508h-195z" />
<glyph unicode="(" horiz-adv-x="647" d="M98 377q0 793 529 1182l170 -170q-231 -215 -321.5 -455t-90.5 -547q0 -276 133 -582l-231 -118q-90 154 -139.5 344t-49.5 346z" />
<glyph unicode=")" horiz-adv-x="651" d="M-123 -143q231 215 321.5 454.5t90.5 546.5q0 276 -133 582l231 119q90 -154 139 -344.5t49 -346.5q0 -793 -528 -1181z" />
<glyph unicode="*" horiz-adv-x="958" d="M178 985l23 129h274l-108 242l122 65l113 -245l201 251l100 -77l-190 -236h272l-22 -129h-273l109 -233l-123 -66l-115 242l-199 -246l-100 76l182 227h-266z" />
<glyph unicode="+" horiz-adv-x="1056" d="M119 387v221h299v307h227v-307h299v-221h-299v-305h-227v305h-299z" />
<glyph unicode="," horiz-adv-x="561" d="M0 -223l158 223h-109l60 340h288l-65 -365l-228 -282z" />
<glyph unicode="-" horiz-adv-x="684" d="M70 451l43 245h520l-43 -245h-520z" />
<glyph unicode="." horiz-adv-x="565" d="M49 0l60 340h288l-59 -340h-289z" />
<glyph unicode="/" horiz-adv-x="927" d="M-41 -240l793 1624h258l-793 -1624h-258z" />
<glyph unicode="0" horiz-adv-x="1120" d="M76 270q0 41 6 80l111 633q33 188 148.5 274t365.5 86q180 0 282.5 -87t102.5 -228q0 -29 -7 -63l-108 -619q-33 -190 -145.5 -278t-366.5 -88q-389 -1 -389 290zM365 309q0 -45 29.5 -61.5t113.5 -16.5q100 0 137 33t53 121l99 557q4 25 4 47q0 53 -33 78t-109 25 q-94 0 -134 -36t-54 -120l-100 -563q-6 -37 -6 -64z" />
<glyph unicode="1" horiz-adv-x="790" d="M88 1096l436 227h264l-233 -1323h-289l174 989l-250 -123z" />
<glyph unicode="2" horiz-adv-x="1017" d="M10 0l43 248q172 150 353 315q150 143 227 228q47 57 63 159l6 37q10 55 -23.5 77.5t-123.5 22.5q-164 0 -330 -36l-26 233q199 59 415 59q188 0 286.5 -68.5t98.5 -195.5q0 -35 -6 -67l-8 -45q-27 -150 -51 -203q-45 -92 -203 -250q-139 -141 -272 -262h405l-43 -252 h-811z" />
<glyph unicode="3" horiz-adv-x="1001" d="M10 49l62 217q154 -47 293 -47q123 0 158.5 24.5t47.5 94.5l17 88q4 29 4 37q0 41 -26.5 59.5t-90.5 18.5h-287l43 243h279q70 0 97.5 28t39.5 93l17 99q4 25 4 32q0 45 -34 59.5t-120 14.5q-111 0 -278 -33l-23 219q188 47 369 47q383 0 383 -245q0 -25 -7 -62l-18 -110 q-12 -74 -25.5 -114t-53.5 -82t-111 -62q129 -61 129 -191q0 -35 -7 -71l-18 -97q-16 -88 -41 -142t-77 -100.5t-140 -66.5t-223 -20q-86 0 -191.5 18t-171.5 51z" />
<glyph unicode="4" horiz-adv-x="1126" d="M-2 283l45 252l629 788h399l-141 -807h166l-41 -233h-166l-49 -283h-283l49 283h-608zM334 516h313l94 531z" />
<glyph unicode="5" horiz-adv-x="999" d="M18 49l64 230q193 -49 326 -50q106 0 144 29t50 100l8 50q6 37 6 49q0 49 -29.5 65.5t-111.5 20.5q-205 10 -319 10l135 770h739l-43 -250h-452l-52 -289q231 -6 333 -55t102 -188q0 -25 -7 -62l-24 -137q-35 -197 -140.5 -279.5t-351.5 -82.5q-195 -1 -377 69z" />
<glyph unicode="6" horiz-adv-x="1062" d="M76 260q0 47 10 113l90 512q47 264 160 361t385 97q172 0 332 -53l-56 -223q-143 35 -262 35q-145 0 -196.5 -40t-71.5 -147l-27 -143q117 31 238 31q147 0 219 -56.5t72 -181.5q0 -39 -11 -104l-14 -88q-16 -100 -40.5 -164t-77 -121t-146.5 -82.5t-236 -25.5 q-203 0 -285.5 73.5t-82.5 206.5zM365 309q0 -45 26.5 -63.5t95.5 -18.5q86 0 119 27t45 96l19 101q4 25 4 32q0 74 -90 74q-98 0 -187 -39l-26 -149q-6 -29 -6 -60z" />
<glyph unicode="7" horiz-adv-x="927" d="M37 0l633 1069h-549l43 254h852l-43 -246l-627 -1077h-309z" />
<glyph unicode="8" horiz-adv-x="1081" d="M57 242q0 43 9 84l18 104q14 78 61.5 134.5t157.5 109.5q-109 80 -108 182q0 16 4 49l20 115q33 178 129 250.5t332 72.5q172 0 266 -67.5t94 -192.5q0 -31 -6 -63l-20 -115q-14 -84 -51 -133t-132 -98q137 -80 138 -191q0 -35 -4 -53l-19 -104q-33 -193 -137 -269.5 t-365 -76.5q-387 0 -387 262zM338 291q0 -43 32.5 -59.5t114.5 -16.5q96 0 135 25.5t50 89.5l12 67q4 29 4 39q0 35 -28.5 58.5t-116.5 60.5q-119 -43 -147.5 -70.5t-39.5 -87.5l-12 -67q-4 -29 -4 -39zM473 874q0 -31 23.5 -50t91.5 -48q94 33 118.5 56.5t32.5 76.5l17 99 q4 20 4 30q0 72 -117 72q-78 0 -108.5 -22.5t-40.5 -79.5l-17 -99q-4 -29 -4 -35z" />
<glyph unicode="9" horiz-adv-x="1044" d="M41 47l61 221q152 -47 267 -47q143 0 189 32t65 134l30 164q-117 -31 -237 -31q-289 0 -289 244q0 51 8 98l15 88q18 109 41.5 173.5t77 119.5t145.5 77.5t235 22.5q369 0 369 -290q0 -45 -10 -103l-90 -512q-25 -143 -56 -224t-92 -138.5t-153.5 -76.5t-243.5 -19 q-76 0 -173.5 19t-158.5 48zM420 831q0 -39 21.5 -52t68.5 -13q98 0 186 39l29 160q6 43 6 51q0 43 -27.5 61.5t-97.5 18.5q-86 0 -118.5 -27t-45.5 -96l-18 -101q-4 -29 -4 -41z" />
<glyph unicode=":" horiz-adv-x="573" d="M57 0l60 340h289l-60 -340h-289zM162 596l59 340h289l-59 -340h-289z" />
<glyph unicode=";" horiz-adv-x="575" d="M0 -223l158 223h-109l60 340h288l-65 -365l-228 -282zM154 596l59 340h289l-60 -340h-288z" />
<glyph unicode="&#x3c;" horiz-adv-x="1144" d="M61 426v147l902 443l84 -168l-725 -348l725 -348l-84 -170z" />
<glyph unicode="=" horiz-adv-x="1067" d="M133 217v191h842v-191h-842zM133 621v190h842v-190h-842z" />
<glyph unicode="&#x3e;" horiz-adv-x="1144" d="M98 152l725 348l-725 348l84 168l901 -443v-147l-901 -444z" />
<glyph unicode="?" horiz-adv-x="989" d="M207 1380q184 45 387 45t304 -71.5t101 -202.5q0 -45 -10 -113q-12 -74 -19 -108.5t-31 -83.5t-48.5 -76t-83.5 -77t-128 -97t-190 -125l-139 209q174 117 238.5 168t82 82t27.5 92q4 29 4 39q0 63 -31.5 85.5t-142.5 22.5q-102 0 -292 -34zM248 0l59 340h289l-59 -340 h-289z" />
<glyph unicode="@" horiz-adv-x="1474" d="M92 549q0 385 212 610t581 225q266 0 417.5 -135t151.5 -346q0 -215 -104.5 -352t-302.5 -137q-47 0 -92.5 17.5t-59.5 43.5q-121 -61 -236 -61q-145 0 -145 151q0 31 33 217q20 117 82.5 168t179.5 51q127 0 262 -71l-63 -363q12 -4 28 -4q123 0 181.5 90t58.5 232 q0 156 -106.5 245t-301.5 89q-270 0 -429.5 -181.5t-159.5 -470.5q0 -420 454 -420q221 0 434 91l23 -158q-182 -100 -459 -100q-319 0 -479 155.5t-160 413.5zM684 629q-8 -37 5 -54.5t52 -17.5q68 0 121 45l41 236q-49 20 -112 20q-70 0 -80 -72z" />
<glyph unicode="A" horiz-adv-x="1294" d="M-72 0l656 1364h411l195 -1364h-320l-28 268h-465l-123 -268h-326zM487 518h326l-57 594z" />
<glyph unicode="B" horiz-adv-x="1183" d="M41 0l240 1364h538q342 0 342 -227q0 -33 -6 -70l-25 -139q-14 -80 -56 -131.5t-142 -85.5q78 -20 124 -75.5t46 -133.5q0 -12 -4 -45l-25 -133q-29 -158 -130 -241t-320 -83h-582zM383 242h211q82 0 128 25.5t58 97.5l15 84q4 25 4 32q0 88 -109 88h-248zM481 801h201 q125 0 143 102l21 119q4 20 4 29q0 72 -102 71h-209z" />
<glyph unicode="C" horiz-adv-x="1085" d="M76 313q0 39 8 82l104 590q37 209 169 304t382 95q178 0 394 -59l-68 -258q-211 45 -356 45q-109 0 -160 -43t-70 -149l-84 -476q-6 -35 -6 -63q0 -70 40 -99.5t128 -29.5q174 0 354 39l11 -258q-188 -53 -412 -53q-217 0 -325.5 90.5t-108.5 242.5z" />
<glyph unicode="D" horiz-adv-x="1226" d="M41 0l242 1364h520q207 0 305 -95t98 -239q0 -39 -6 -76l-106 -602q-14 -78 -37 -132t-74 -109.5t-147.5 -83t-237.5 -27.5h-557zM389 266h209q113 0 153 39t56 131l86 492q6 31 6 55q0 57 -39 86t-133 29h-190z" />
<glyph unicode="E" horiz-adv-x="1089" d="M41 0l240 1364h858l-47 -266h-557l-46 -260h515l-48 -265h-514l-55 -307h557l-45 -266h-858z" />
<glyph unicode="F" horiz-adv-x="1052" d="M41 0l240 1364h866l-47 -266h-565l-54 -301h523l-48 -265h-522l-92 -532h-301z" />
<glyph unicode="G" horiz-adv-x="1210" d="M76 309q0 33 8 86l102 590q35 197 163 298t390 101q215 0 428 -65l-67 -258q-184 51 -391 51q-113 0 -164 -47t-68 -143l-84 -473q-6 -35 -6 -68q0 -66 39 -99.5t131 -33.5q96 0 201 22l67 373h283l-102 -575q-207 -88 -476 -88q-229 0 -341.5 86.5t-112.5 242.5z" />
<glyph unicode="H" horiz-adv-x="1304" d="M41 0l240 1364h301l-97 -547h437l96 547h301l-240 -1364h-301l96 553h-436l-96 -553h-301z" />
<glyph unicode="I" horiz-adv-x="587" d="M51 0l240 1364h301l-240 -1364h-301z" />
<glyph unicode="J" horiz-adv-x="593" d="M-154 -213q115 72 156 114t49 97l242 1366h305l-250 -1413q-16 -94 -96 -178t-262 -203z" />
<glyph unicode="K" horiz-adv-x="1239" d="M41 0l240 1364h301l-240 -1364h-301zM492 696l477 668h368l-514 -668l271 -696h-330z" />
<glyph unicode="L" horiz-adv-x="1005" d="M41 0l240 1364h301l-195 -1098h547l-45 -266h-848z" />
<glyph unicode="M" horiz-adv-x="1638" d="M8 0l324 1364h303l170 -881l498 881h301l-160 -1364h-295l96 748l-340 -570h-307l-115 570l-178 -748h-297z" />
<glyph unicode="N" horiz-adv-x="1398" d="M41 0l240 1364h366l299 -989l174 989h293l-239 -1364h-371l-305 936l-162 -936h-295z" />
<glyph unicode="O" d="M76 342q0 33 6 64l98 563q37 203 173 309t413 106q229 0 352 -109.5t123 -260.5q0 -31 -6 -62l-98 -557q-35 -207 -174.5 -311t-427.5 -104q-227 0 -343 105t-116 257zM381 375q0 -129 201 -129q227 0 258 176l92 520q4 29 4 41q0 135 -201 135q-225 0 -258 -176 l-92 -520q-4 -33 -4 -47z" />
<glyph unicode="P" horiz-adv-x="1212" d="M41 0l240 1364h520q217 0 325.5 -80t108.5 -227q0 -39 -12 -105l-27 -153q-25 -135 -73 -214t-154.5 -124t-282.5 -45h-270l-74 -416h-301zM463 676h248q98 0 136 33.5t52 117.5l19 109q6 37 6 59q0 102 -133 103h-254z" />
<glyph unicode="Q" d="M76 342q0 33 6 64l98 563q37 203 173 309t413 106q229 0 352 -109.5t123 -260.5q0 -31 -6 -62l-98 -557q-35 -207 -174.5 -311t-427.5 -104q-227 0 -343 105t-116 257zM262 -340l49 229q305 -12 580 -79l-57 -232q-257 57 -572 82zM381 375q0 -129 201 -129 q227 0 258 176l92 520q4 29 4 41q0 135 -201 135q-225 0 -258 -176l-92 -520q-4 -33 -4 -47z" />
<glyph unicode="R" horiz-adv-x="1323" d="M41 0l240 1364h522q436 0 436 -311q0 -23 -8 -84l-29 -164q-23 -135 -80 -215t-180 -123l258 -467h-338l-239 426h-207l-74 -426h-301zM463 686h258q94 0 133 35t53 119l19 102q6 33 6 57q0 53 -35 76t-113 23h-249z" />
<glyph unicode="S" horiz-adv-x="1103" d="M29 70l65 231q227 -68 371 -68q119 0 160 30t57 120q8 39 8 72q0 45 -39 66.5t-168 53.5q-170 43 -240.5 111t-70.5 186q0 59 16 148q31 158 80 231.5t144.5 103t287.5 29.5q188 0 398 -53l-54 -252q-199 47 -368 47q-111 0 -145.5 -23.5t-49.5 -105.5q-8 -61 -8 -73 q0 -47 35 -65.5t166 -51.5q184 -47 253.5 -109.5t69.5 -171.5q0 -57 -16 -145q-27 -150 -76 -231.5t-158.5 -125.5t-300.5 -44q-88 0 -213.5 26.5t-203.5 63.5z" />
<glyph unicode="T" horiz-adv-x="1085" d="M123 1098l47 266h1040l-47 -266h-368l-193 -1098h-303l193 1098h-369z" />
<glyph unicode="U" horiz-adv-x="1273" d="M94 326q0 35 6 69l170 969h301l-163 -928q-6 -35 -7 -63q0 -66 42 -96.5t145 -30.5q117 0 172 44t71 134l166 940h301l-170 -969q-16 -94 -48.5 -162.5t-95 -129t-170 -92t-257.5 -31.5q-231 0 -347 99.5t-116 246.5z" />
<glyph unicode="V" horiz-adv-x="1216" d="M147 1364h308l98 -1104l479 1104h328l-619 -1364h-448z" />
<glyph unicode="W" horiz-adv-x="1953" d="M158 1364h295l73 -993l422 993h344l68 -993l418 993h301l-570 -1364h-385l-63 1010l-420 -1010h-375z" />
<glyph unicode="X" d="M-47 0l545 715l-271 649h314l176 -436l309 436h342l-528 -686l303 -678h-320l-190 438l-334 -438h-346z" />
<glyph unicode="Y" horiz-adv-x="1095" d="M121 1364h305l152 -631l358 631h346l-606 -971l-68 -393h-303l68 393z" />
<glyph unicode="Z" horiz-adv-x="1148" d="M74 246l723 860h-584l45 258h899l-2 -248l-727 -864h586l-45 -252h-889z" />
<glyph unicode="[" horiz-adv-x="645" d="M14 -258l332 1876h451l-41 -227h-164l-250 -1422h164l-41 -227h-451z" />
<glyph unicode="\" horiz-adv-x="927" d="M236 1384h258l219 -1624h-258z" />
<glyph unicode="]" horiz-adv-x="645" d="M-98 -258l41 227h163l250 1422h-163l40 227h451l-332 -1876h-450z" />
<glyph unicode="^" horiz-adv-x="964" d="M133 870l389 535h195l233 -578l-188 -73l-168 432l-303 -432z" />
<glyph unicode="_" horiz-adv-x="909" d="M-2 0h913v-94h-913v94z" />
<glyph unicode="`" horiz-adv-x="634" d="M231 1315l125 147q104 -109 256 -225l-108 -135q-152 98 -273 213z" />
<glyph unicode="a" horiz-adv-x="1079" d="M70 334l47 268q16 98 44.5 166t86 128t156 90t241.5 30q182 0 381 -62l-166 -954h-244l-8 86q-139 -106 -317 -106q-156 0 -204 88q-29 54 -29 141q0 56 12 125zM354 303q-2 -14 -2 -24q0 -22 8 -33q12 -16 50 -17q102 0 219 99l76 432q-49 10 -113 10q-53 0 -89 -11 t-54.5 -39t-26.5 -51.5t-16 -68.5z" />
<glyph unicode="b" horiz-adv-x="1069" d="M45 27l244 1378l295 41l-90 -514q147 86 290 86q158 0 210 -90q33 -57 33 -148q0 -53 -11 -118l-47 -269q-18 -102 -43 -166.5t-81.5 -127t-158.5 -91t-256 -28.5q-188 0 -385 47zM371 227q51 -6 112 -6q102 0 141.5 42t55.5 128l53 307q2 13 3 25q0 54 -58 53 q-100 0 -225 -78z" />
<glyph unicode="c" horiz-adv-x="854" d="M57 233q0 76 17 152l55 279q41 205 147.5 279.5t327.5 74.5q127 0 232 -41l-70 -234q-86 29 -166 29q-96 0 -137 -33.5t-57 -122.5l-54 -303q-4 -25 -4 -39q0 -49 53 -49q72 0 281 62l27 -232q-156 -76 -330 -75q-170 0 -246 60t-76 193z" />
<glyph unicode="d" horiz-adv-x="1085" d="M59 334l47 268q12 68 24.5 114t36 98t59.5 85t89.5 62.5t132 43t181.5 13.5q76 0 121 -10l69 397l295 41l-254 -1446h-244l-8 86q-129 -106 -317 -106q-158 0 -210 89q-33 56 -33 146q0 54 11 119zM342 299q-2 -13 -2 -24q0 -54 57 -54q117 0 232 103l78 444 q-43 8 -113 8q-102 0 -142 -45t-57 -131z" />
<glyph unicode="e" horiz-adv-x="946" d="M51 240q0 55 12 120l50 281q33 188 134 282.5t324 94.5q147 0 239.5 -64.5t92.5 -185.5q0 -143 -79 -222t-267 -136q-109 -33 -209 -60l-12 -69q-2 -11 -2 -21q0 -49 53 -49q139 0 391 111l56 -205q-94 -59 -227.5 -98t-260.5 -39q-295 0 -295 260zM389 584q96 25 131 34 q115 33 115 119q0 57 -84 58q-72 0 -104.5 -36t-45.5 -106z" />
<glyph unicode="f" horiz-adv-x="733" d="M-41 -252q70 72 93.5 121t37.5 131l135 762h-143l41 235h143l25 131q33 172 108.5 245t251.5 73q139 0 256 -43l-59 -227q-84 31 -170 30q-49 0 -68.5 -14t-27.5 -53l-27 -142h258l-61 -235h-238l-139 -795q-18 -109 -67.5 -194.5t-162.5 -196.5z" />
<glyph unicode="g" horiz-adv-x="1089" d="M-4 -346l51 203q240 -57 397 -58q61 0 85 22.5t34 78.5l35 206q-147 -86 -291 -86q-158 0 -210 91q-33 57 -33 147q0 53 12 119l41 227q20 109 43.5 173.5t79 126t156 88t255.5 26.5q203 0 387 -60l-196 -1105q-29 -164 -114 -220.5t-288 -56.5q-88 0 -219 23.5 t-225 54.5zM358 340q-2 -13 -2 -24q0 -54 58 -54q100 0 225 78l76 430q-51 6 -113 6q-102 0 -141 -42t-55 -128z" />
<glyph unicode="h" horiz-adv-x="1120" d="M41 0l248 1405l295 41l-92 -528q197 100 364 100q182 0 182 -203q0 -63 -10 -115l-123 -700h-289l119 676q4 25 4 33q0 29 -39 28q-80 0 -258 -94l-112 -643h-289z" />
<glyph unicode="i" horiz-adv-x="555" d="M41 0l172 975l297 41l-180 -1016h-289zM238 1108l53 307l297 41l-56 -307z" />
<glyph unicode="j" horiz-adv-x="561" d="M-143 -225q131 100 153 129q27 35 37 96l172 975l297 41l-188 -1063q-18 -106 -79 -180t-251 -197zM244 1108l53 307l297 41l-55 -307z" />
<glyph unicode="k" horiz-adv-x="1048" d="M41 0l246 1405l297 41l-254 -1446h-289zM446 502l349 518l299 -45l-349 -473l185 -502h-305z" />
<glyph unicode="l" horiz-adv-x="555" d="M41 0l246 1405l297 41l-254 -1446h-289z" />
<glyph unicode="m" horiz-adv-x="1695" d="M41 0l170 973l254 43l-2 -111q238 113 393 113q137 0 172 -117q201 117 404 117q182 0 182 -203q0 -63 -10 -115l-123 -700h-289l119 678q4 25 4 31q0 29 -39 28q-76 0 -260 -96l-113 -641h-287l119 678q4 25 4 31q0 29 -39 28q-80 0 -258 -94l-112 -643h-289z" />
<glyph unicode="n" horiz-adv-x="1120" d="M41 0l170 973l254 43l-2 -111q238 113 393 113q182 0 182 -203q0 -51 -10 -115l-123 -700h-289l119 678q4 25 4 31q0 29 -39 28q-80 0 -258 -94l-112 -643h-289z" />
<glyph unicode="o" horiz-adv-x="1064" d="M51 313q0 35 6 70l41 231q37 205 153 304.5t365 99.5q190 0 290 -94.5t100 -237.5q0 -35 -7 -72l-41 -231q-35 -199 -150.5 -301t-369.5 -102q-182 0 -284.5 95t-102.5 238zM342 334q0 -113 139 -113q162 0 189 154l43 248q4 29 4 41q0 113 -139 112q-164 0 -189 -153 l-43 -248q-4 -29 -4 -41z" />
<glyph unicode="p" horiz-adv-x="1085" d="M-37 -444l254 1441h244l8 -86q129 106 317 107q158 0 210 -89q33 -56 33 -147q0 -53 -11 -118l-47 -269q-12 -68 -24.5 -113.5t-36 -98t-59.5 -85t-89 -62.5t-132 -43t-181 -13q-76 0 -121 10l-70 -393zM371 229q43 -8 112 -8q102 0 142.5 45t56.5 131l53 301q2 13 3 25 q0 54 -58 53q-117 0 -231 -102z" />
<glyph unicode="q" horiz-adv-x="1083" d="M59 336l47 268q18 102 43 167t81.5 127.5t159 91t255.5 28.5q188 0 385 -47l-244 -1374l-294 -41l90 510q-147 -86 -291 -86q-158 0 -210 90q-33 57 -33 147q0 54 11 119zM342 299q-2 -13 -2 -24q0 -54 57 -54q100 0 226 78l82 471q-53 6 -113 6q-102 0 -141 -42 t-56 -128z" />
<glyph unicode="r" horiz-adv-x="692" d="M41 0l170 973l254 43l-6 -135q141 84 260 135l4 -260q-164 -90 -289 -168l-104 -588h-289z" />
<glyph unicode="s" horiz-adv-x="845" d="M25 45l55 213q145 -51 270 -51q45 0 69.5 10t31 23.5t10.5 42.5q1 6 1 12q0 26 -22 46q-27 26 -112 71q-147 78 -181 144q-19 39 -19 99q0 41 9 90q31 164 102.5 218.5t276.5 54.5q152 0 297 -47l-47 -217q-133 37 -252 37q-63 0 -81.5 -11.5t-26.5 -52.5 q-6 -35 10 -52.5t88 -56.5q174 -92 215 -149q27 -38 27 -103q0 -32 -7 -71q-23 -121 -58.5 -184.5t-117.5 -97t-229 -33.5q-162 -1 -309 65z" />
<glyph unicode="t" horiz-adv-x="770" d="M80 766l41 231h147l41 240l297 41l-49 -281h238l-58 -231h-221l-88 -498q-4 -20 -4 -26q0 -20 29 -21q53 0 155 41l58 -201q-150 -82 -318 -81q-109 0 -166 49t-57 139q0 14 4 43l98 555h-147z" />
<glyph unicode="u" horiz-adv-x="1122" d="M74 182q0 47 10 115l119 678l295 41l-121 -694q-4 -20 -4 -31q0 -31 39 -31q70 0 258 94l108 621l297 41l-178 -1016h-246l-2 92q-238 -113 -393 -112q-182 -1 -182 202z" />
<glyph unicode="v" horiz-adv-x="978" d="M100 967l289 41l76 -744l209 498q25 66 24 127q0 41 -10 86l281 41q14 -49 14 -121q0 -104 -33 -180l-321 -715h-391z" />
<glyph unicode="w" horiz-adv-x="1460" d="M113 963l276 43q43 -248 43 -482q0 -109 -8 -205l250 484l-35 158l266 40l121 -669l109 420q12 61 12 102q0 49 -17 109l279 53q20 -96 21 -158q0 -104 -58 -252l-205 -606h-333l-86 453l-246 -453h-324q-2 514 -65 963z" />
<glyph unicode="x" horiz-adv-x="1003" d="M-37 0l395 502l-215 473l277 41l129 -332l215 313h307l-401 -534l211 -463h-289l-117 250l-207 -250h-305z" />
<glyph unicode="y" horiz-adv-x="978" d="M35 -215q201 76 295 215h-92l-138 967l289 41l76 -744l209 498q25 66 24 127q0 41 -10 86l281 41q14 -49 14 -121q0 -104 -33 -180l-321 -715q-92 -182 -196.5 -277.5t-323.5 -164.5z" />
<glyph unicode="z" horiz-adv-x="925" d="M53 221l475 547h-376l38 229h676l-2 -221l-477 -545h393l-39 -231h-678z" />
<glyph unicode="{" horiz-adv-x="675" d="M80 557l39 213h53q45 0 62.5 17.5t23.5 56.5l84 471q29 164 102.5 233.5t235.5 69.5h174l-41 -225h-86q-47 0 -69.5 -20.5t-32.5 -72.5l-74 -421q-35 -201 -217 -215q178 -12 141 -215l-74 -422q-16 -92 70 -93h86l-41 -225h-174q-285 0 -229 303l82 471q14 74 -66 74 h-49z" />
<glyph unicode="|" horiz-adv-x="565" d="M215 -430v2048h197v-2048h-197z" />
<glyph unicode="}" horiz-adv-x="673" d="M-129 -291l41 225h86q47 0 69.5 20.5t32.5 72.5l74 422q35 201 217 215q-178 12 -141 215l74 421q16 92 -70 93h-86l41 225h174q285 0 229 -303l-82 -471q-14 -74 66 -74h49l-39 -213h-53q-45 0 -62.5 -17.5t-23.5 -56.5l-84 -471q-29 -164 -102.5 -233.5t-235.5 -69.5 h-174z" />
<glyph unicode="~" horiz-adv-x="944" d="M47 475q61 131 129 194.5t170 63.5q51 0 156.5 -64.5t148.5 -64.5q53 0 84 34t58 93l139 -90q-104 -258 -293 -258q-74 0 -174 64.5t-133 64.5q-51 0 -83 -33t-63 -94z" />
<glyph unicode="&#xa1;" horiz-adv-x="581" d="M-16 -403l100 569l125 356h164l-2 -356l-101 -569h-286zM168 657l59 340h295l-59 -340h-295z" />
<glyph unicode="&#xa2;" horiz-adv-x="870" d="M72 418q0 59 16 151l49 250q35 178 113 264t223 109l35 192h184l-33 -184q102 -6 191 -39l-70 -233q-86 29 -166 28q-96 0 -137 -33.5t-57 -121.5l-53 -303q-4 -25 -5 -39q0 -49 54 -49q72 0 280 61l27 -231q-113 -53 -246 -70l-33 -190h-184l33 190q-117 14 -169 74.5 t-52 173.5z" />
<glyph unicode="&#xa3;" horiz-adv-x="1101" d="M41 0l43 242q104 61 173 154t69 184h-207l31 206h147q-33 90 -33 195q0 188 105.5 275t332.5 87q174 0 359 -49l-41 -223q-160 33 -305 33q-90 0 -129 -34t-39 -118q0 -94 28 -166h359l-33 -206h-307q0 -225 -174 -340h553l-43 -240h-889z" />
<glyph unicode="&#xa4;" horiz-adv-x="1193" d="M141 299l105 127q-10 37 -10 72q0 14 4 51l47 274q12 78 47 129l-98 121l176 150l114 -142q72 18 170 19q76 0 138 -17l114 140l176 -150l-116 -141q6 -25 6 -55q0 -20 -4 -54l-47 -274q-12 -66 -41 -119l108 -131l-176 -149l-119 143q-74 -20 -184 -21q-72 0 -123 13 l-111 -135zM483 547q0 -37 26 -47.5t81 -10.5q57 0 90 16.5t43 69.5l39 222q2 10 2 22q0 39 -27.5 51.5t-79.5 12.5q-57 0 -89.5 -16.5t-43.5 -69.5l-39 -222q-2 -10 -2 -28z" />
<glyph unicode="&#xa5;" horiz-adv-x="1122" d="M47 240l33 182h299l-43 170h-227l32 182h148l-144 549h306l141 -590l336 590h346l-346 -549h178l-35 -182h-258l-106 -170h337l-34 -182h-346l-41 -240h-304l41 240h-313z" />
<glyph unicode="&#xa6;" horiz-adv-x="565" d="M215 420h197v-850h-197v850zM215 768v850h197v-850h-197z" />
<glyph unicode="&#xa7;" horiz-adv-x="1073" d="M168 762q0 223 27 381q20 123 95 182t242 59q186 0 345 -59l-50 -186q-184 47 -295 47q-94 0 -108 -88q-23 -127 -23 -334q0 -336 54 -729l-224 -35q-63 381 -63 762zM199 -324l49 187q184 -47 295 -47q94 0 108 88q23 127 23 334q0 336 -53 729l223 34q63 -381 63 -761 q0 -223 -26 -381q-20 -123 -95 -182.5t-243 -59.5q-186 0 -344 59z" />
<glyph unicode="&#xa8;" horiz-adv-x="890" d="M236 1133l43 241l227 10l-41 -241zM641 1133l43 241l227 10l-41 -241z" />
<glyph unicode="&#xa9;" horiz-adv-x="1581" d="M133 682q0 299 193.5 500.5t505 201.5t505 -201.5t193.5 -500.5q0 -297 -194.5 -499.5t-504 -202.5t-504 202.5t-194.5 499.5zM324 682q0 -221 140 -368.5t367.5 -147.5t367.5 147.5t140 368.5q0 223 -140 369.5t-367.5 146.5t-367.5 -146.5t-140 -369.5zM553 590v190 q0 131 68.5 195.5t228.5 64.5q102 0 197 -39l-31 -159q-74 25 -152 24q-55 0 -79.5 -19.5t-24.5 -64.5v-194q0 -45 24.5 -64.5t79.5 -19.5q78 0 152 24l31 -159q-94 -39 -197 -39q-160 0 -228.5 64.5t-68.5 195.5z" />
<glyph unicode="&#xaa;" horiz-adv-x="778" d="M174 907q0 41 8 84l27 142q29 160 106.5 226t241.5 66q119 0 242 -41l-105 -610h-157l-2 60q-100 -72 -209 -72q-152 0 -152 145zM360 944q0 -18 29 -18q74 0 160 78l43 260q-20 4 -49 4q-70 0 -102.5 -24.5t-43.5 -84.5l-32 -186q-5 -25 -5 -29z" />
<glyph unicode="&#xab;" horiz-adv-x="1038" d="M51 500l314 393l174 -145l-211 -248l118 -293l-202 -101zM516 500l313 393l175 -145l-211 -248l118 -293l-202 -101z" />
<glyph unicode="&#xac;" horiz-adv-x="1032" d="M102 532v222h828v-541h-238v319h-590z" />
<glyph unicode="&#xad;" horiz-adv-x="684" d="M70 451l43 245h520l-43 -245h-520z" />
<glyph unicode="&#xae;" horiz-adv-x="894" d="M195 1054.5q0 157.5 101 264t263 106.5q164 0 265.5 -106.5t101.5 -263.5q0 -160 -101.5 -266.5t-265.5 -106.5q-162 0 -263 107.5t-101 265zM307 1054.5q0 -114.5 64.5 -189t187.5 -74.5t188.5 74.5t65.5 189t-65.5 188.5t-188.5 74t-187.5 -74t-64.5 -188.5zM438 895 v336h137q109 0 109 -96v-33q0 -59 -47 -82l84 -125h-84l-78 113h-47v-113h-74zM512 1073h57q43 0 43 37v16q0 37 -43 37h-57v-90z" />
<glyph unicode="&#xaf;" horiz-adv-x="718" d="M215 1135l33 188h512l-33 -188h-512z" />
<glyph unicode="&#xb0;" horiz-adv-x="763" d="M184 1012q0 150 83 240.5t243 90.5q111 0 174.5 -62t63.5 -157q0 -139 -88.5 -234t-241.5 -95q-106 0 -170 60.5t-64 156.5zM336 1034q0 -106 104 -106q72 0 113 51t41 123q0 109 -102 108q-74 0 -115 -47t-41 -129z" />
<glyph unicode="&#xb1;" horiz-adv-x="1056" d="M119 0v209h825v-209h-825zM119 633v219h299v307h227v-307h299v-219h-299v-305h-227v305h-299z" />
<glyph unicode="&#xb2;" horiz-adv-x="821" d="M143 502l27 155q82 72 221 195q117 102 139.5 129t28.5 66l6 36q2 10 2 25q0 27 -16 37t-55 10q-84 0 -211 -31l-31 174q152 45 272 45q119 0 186.5 -47t67.5 -139q0 -16 -4 -49l-10 -61q-8 -43 -14.5 -63.5t-29 -56.5t-65.5 -77q-59 -59 -178 -174h246l-29 -174h-553z " />
<glyph unicode="&#xb3;" horiz-adv-x="780" d="M143 530l37 150q125 -29 226 -29q43 0 62 12.5t26 45.5l12 71q2 12 2 19q0 39 -59 39h-211l26 151h197q72 0 82 68l8 49q2 12 2 27q0 25 -18.5 35t-71.5 10q-102 0 -174 -13l-10 154q104 25 223 24q139 0 198.5 -38.5t59.5 -120.5q0 -33 -4 -54l-8 -49 q-10 -72 -36 -104.5t-94 -56.5q88 -33 89 -117q0 -25 -7 -60l-8 -47q-23 -123 -81 -167t-216 -44q-121 0 -252 45z" />
<glyph unicode="&#xb4;" horiz-adv-x="634" d="M236 1253q154 84 335 209l93 -168q-141 -96 -345 -192z" />
<glyph unicode="&#xb5;" horiz-adv-x="1122" d="M-39 -403l242 1378l295 41l-121 -694q-4 -25 -4 -31q0 -31 39 -31q37 0 117.5 31t140.5 63l108 621l297 41l-178 -1016h-246l-2 92q-199 -94 -334 -108l-67 -387h-287z" />
<glyph unicode="&#xb6;" horiz-adv-x="1085" d="M164 817q0 256 152.5 401.5t390.5 145.5l-162 -915q-174 0 -277.5 102t-103.5 266zM324 -270q227 178 258 213q37 39 47 98l233 1323h217l-239 -1356q-10 -59 -26.5 -96t-57.5 -74q-55 -49 -326 -262z" />
<glyph unicode="&#xb7;" horiz-adv-x="569" d="M133 520l60 340h288l-59 -340h-289z" />
<glyph unicode="&#xb8;" horiz-adv-x="598" d="M-31 -373l33 107q59 -18 117 -19q111 0 110 64q0 37 -43 37q-57 0 -110 -4l-33 32l78 197h121l-52 -141q39 6 68 6q57 0 86 -35t29 -82q0 -193 -258 -192q-70 -1 -146 30z" />
<glyph unicode="&#xb9;" horiz-adv-x="729" d="M188 1171l316 152h164l-146 -825h-207l105 587l-172 -69z" />
<glyph unicode="&#xba;" horiz-adv-x="804" d="M195 975q0 16 4 45l26 147q23 131 97.5 194.5t234.5 63.5q123 0 185.5 -60t62.5 -153q0 -16 -4 -45l-25 -147q-25 -127 -98.5 -192.5t-235.5 -65.5q-117 0 -182 60.5t-65 152.5zM381 989q0 -74 90 -74q102 0 119 99l28 160q2 8 3 24q0 74 -89 74q-104 0 -120 -98 l-29 -160q-2 -11 -2 -25z" />
<glyph unicode="&#xbb;" horiz-adv-x="1036" d="M45 252l211 248l-119 293l203 100l192 -393l-313 -394zM510 252l211 248l-119 293l203 100l192 -393l-313 -394z" />
<glyph unicode="&#xbc;" horiz-adv-x="1769" d="M188 1171l316 152h164l-146 -825h-207l105 587l-172 -69zM340 -20l889 1443l133 -80l-891 -1447zM897 160l14 143l373 522h295l-90 -508h117l-25 -157h-121l-26 -160h-197l27 160h-367zM1118 317h174l64 357z" />
<glyph unicode="&#xbd;" horiz-adv-x="1794" d="M188 1171l316 152h164l-146 -825h-207l105 587l-172 -69zM340 -20l889 1443l133 -80l-891 -1447zM1024 0l27 156q82 72 221 194q117 102 139.5 129t28.5 66l6 37q2 10 2 24q0 27 -16.5 37t-55.5 10q-84 0 -211 -30l-30 174q152 45 272 45q119 0 186.5 -47t67.5 -140 q0 -16 -4 -49l-10 -61q-8 -43 -14.5 -63.5t-29 -56.5t-65.5 -77q-59 -59 -178 -174h246l-29 -174h-553z" />
<glyph unicode="&#xbe;" horiz-adv-x="1841" d="M143 530l37 150q125 -29 226 -29q43 0 62 12.5t26 45.5l12 71q2 12 2 19q0 39 -59 39h-211l26 151h197q72 0 82 68l8 49q2 12 2 27q0 25 -18.5 35t-71.5 10q-102 0 -174 -13l-10 154q104 25 223 24q139 0 198.5 -38.5t59.5 -120.5q0 -33 -4 -54l-8 -49 q-10 -72 -36 -104.5t-94 -56.5q88 -33 89 -117q0 -25 -7 -60l-8 -47q-23 -123 -81 -167t-216 -44q-121 0 -252 45zM412 -20l888 1443l134 -80l-891 -1447zM969 160l14 143l373 522h295l-90 -508h116l-24 -157h-121l-27 -160h-196l26 160h-366zM1190 317h174l63 357z" />
<glyph unicode="&#xbf;" horiz-adv-x="987" d="M-8 -150q0 45 10 113q12 74 19.5 108.5t31 84t48 76t84 76.5t128 97.5t189.5 124.5l139 -208q-238 -160 -287 -209.5t-61 -132.5q-4 -29 -4 -39q0 -63 31.5 -86t142.5 -23q102 0 293 35l28 -246q-184 -45 -386.5 -45t-304 71.5t-101.5 202.5zM395 657l60 340h288 l-59 -340h-289z" />
<glyph unicode="&#xc0;" horiz-adv-x="1294" d="M-72 0l656 1364h411l195 -1364h-320l-28 268h-465l-123 -268h-326zM487 518h326l-57 594zM549 1632l125 148q82 -86 227 -197l-108 -135q-115 67 -244 184z" />
<glyph unicode="&#xc1;" horiz-adv-x="1294" d="M-72 0l656 1364h411l195 -1364h-320l-28 268h-465l-123 -268h-326zM487 518h326l-57 594zM696 1599q147 80 293 181l92 -168q-135 -96 -301 -164z" />
<glyph unicode="&#xc2;" horiz-adv-x="1294" d="M-72 0l656 1364h411l195 -1364h-320l-28 268h-465l-123 -268h-326zM487 518h326l-57 594zM557 1587q160 90 291 185q74 -84 223 -197l-90 -123q-82 39 -170 104q-82 -66 -174 -104z" />
<glyph unicode="&#xc3;" horiz-adv-x="1294" d="M-72 0l656 1364h411l195 -1364h-320l-28 268h-465l-123 -268h-326zM487 518h326l-57 594zM487 1559q41 80 104.5 127t131.5 47q53 0 128 -46.5t105 -46.5q59 0 95 84l123 -61q-41 -96 -94.5 -146.5t-145.5 -50.5q-63 0 -126 45t-97 45q-47 0 -119 -92z" />
<glyph unicode="&#xc4;" horiz-adv-x="1294" d="M-72 0l656 1364h411l195 -1364h-320l-28 268h-465l-123 -268h-326zM477 1489l39 223h234l-39 -223h-234zM487 518h326l-57 594zM907 1489l39 223h234l-39 -223h-234z" />
<glyph unicode="&#xc5;" horiz-adv-x="1294" d="M-72 0l656 1364h411l195 -1364h-320l-28 268h-465l-123 -268h-326zM487 518h326l-57 594zM653 1589q0 96 55.5 150.5t155.5 54.5q72 0 116 -39t44 -96q0 -92 -54.5 -151.5t-162.5 -59.5q-66 0 -110 40t-44 101zM768 1602q0 -53 55 -54q86 0 86 92q0 53 -57 54 q-84 0 -84 -92z" />
<glyph unicode="&#xc6;" horiz-adv-x="1746" d="M-72 0l656 1364h1212l-47 -266h-723l37 -260h598l-47 -265h-512l43 -307h457l-46 -266h-686l-28 268h-465l-123 -268h-326zM487 518h326l-57 594z" />
<glyph unicode="&#xc7;" horiz-adv-x="1085" d="M76 313q0 39 8 82l104 590q37 209 169 304t382 95q178 0 394 -59l-68 -258q-211 45 -356 45q-109 0 -160 -43t-70 -149l-84 -476q-6 -35 -6 -63q0 -70 40 -99.5t128 -29.5q174 0 354 39l11 -258q-150 -45 -361 -51l-29 -82q41 6 68 6q57 0 86 -35t29 -82 q0 -193 -258 -192q-68 0 -146 30l33 107q59 -18 117 -19q111 0 110 64q0 37 -43 37q-57 0 -110 -4l-33 32l53 140q-180 14 -271 103t-91 226z" />
<glyph unicode="&#xc8;" horiz-adv-x="1089" d="M41 0l240 1364h858l-47 -266h-557l-46 -260h515l-48 -265h-514l-55 -307h557l-45 -266h-858zM487 1632l125 148q82 -86 228 -197l-109 -135q-115 67 -244 184z" />
<glyph unicode="&#xc9;" horiz-adv-x="1089" d="M41 0l240 1364h858l-47 -266h-557l-46 -260h515l-48 -265h-514l-55 -307h557l-45 -266h-858zM580 1599q147 80 292 181l93 -168q-135 -96 -301 -164z" />
<glyph unicode="&#xca;" horiz-adv-x="1089" d="M41 0l240 1364h858l-47 -266h-557l-46 -260h515l-48 -265h-514l-55 -307h557l-45 -266h-858zM471 1587q160 90 291 185q74 -84 223 -197l-90 -123q-82 39 -170 104q-82 -66 -174 -104z" />
<glyph unicode="&#xcb;" horiz-adv-x="1089" d="M41 0l240 1364h858l-47 -266h-557l-46 -260h515l-48 -265h-514l-55 -307h557l-45 -266h-858zM397 1489l39 223h234l-39 -223h-234zM827 1489l39 223h234l-39 -223h-234z" />
<glyph unicode="&#xcc;" horiz-adv-x="587" d="M51 0l240 1364h301l-240 -1364h-301zM209 1632l125 148q82 -86 227 -197l-108 -135q-115 67 -244 184z" />
<glyph unicode="&#xcd;" horiz-adv-x="587" d="M51 0l240 1364h301l-240 -1364h-301zM330 1599q147 80 293 181l92 -168q-135 -96 -301 -164z" />
<glyph unicode="&#xce;" horiz-adv-x="587" d="M51 0l240 1364h301l-240 -1364h-301zM219 1587q160 90 291 185q74 -84 223 -197l-90 -123q-82 39 -170 104q-82 -66 -174 -104z" />
<glyph unicode="&#xcf;" horiz-adv-x="587" d="M51 0l240 1364h301l-240 -1364h-301zM133 1489l39 223h234l-39 -223h-234zM563 1489l39 223h234l-39 -223h-234z" />
<glyph unicode="&#xd0;" horiz-adv-x="1267" d="M55 569l41 236h129l99 559h520q207 0 305 -95t98 -239q0 -39 -6 -76l-106 -602q-14 -78 -37 -132t-74 -109.5t-147.5 -83t-237.5 -27.5h-557l100 569h-127zM430 266h209q113 0 152.5 39t56.5 131l86 492q6 31 6 55q0 57 -39 86t-133 29h-190l-54 -293h191l-41 -236h-191z " />
<glyph unicode="&#xd1;" horiz-adv-x="1398" d="M41 0l240 1364h366l299 -989l174 989h293l-239 -1364h-371l-305 936l-162 -936h-295zM532 1559q41 80 104.5 127t131.5 47q53 0 128 -46.5t105 -46.5q59 0 95 84l123 -61q-41 -96 -94.5 -146.5t-145.5 -50.5q-63 0 -125.5 45t-97.5 45q-47 0 -119 -92z" />
<glyph unicode="&#xd2;" d="M76 342q0 33 6 64l98 563q37 203 173 309t413 106q229 0 352 -109.5t123 -260.5q0 -31 -6 -62l-98 -557q-35 -207 -174.5 -311t-427.5 -104q-227 0 -343 105t-116 257zM381 375q0 -129 201 -129q227 0 258 176l92 520q4 29 4 41q0 135 -201 135q-225 0 -258 -176 l-92 -520q-4 -33 -4 -47zM539 1632l125 148q82 -86 227 -197l-109 -135q-114 67 -243 184z" />
<glyph unicode="&#xd3;" d="M76 342q0 33 6 64l98 563q37 203 173 309t413 106q229 0 352 -109.5t123 -260.5q0 -31 -6 -62l-98 -557q-35 -207 -174.5 -311t-427.5 -104q-227 0 -343 105t-116 257zM381 375q0 -129 201 -129q227 0 258 176l92 520q4 29 4 41q0 135 -201 135q-225 0 -258 -176 l-92 -520q-4 -33 -4 -47zM666 1599q147 80 292 181l93 -168q-135 -96 -301 -164z" />
<glyph unicode="&#xd4;" d="M76 342q0 33 6 64l98 563q37 203 173 309t413 106q229 0 352 -109.5t123 -260.5q0 -31 -6 -62l-98 -557q-35 -207 -174.5 -311t-427.5 -104q-227 0 -343 105t-116 257zM381 375q0 -129 201 -129q227 0 258 176l92 520q4 29 4 41q0 135 -201 135q-225 0 -258 -176 l-92 -520q-4 -33 -4 -47zM530 1587q160 90 291 185q74 -84 223 -197l-90 -123q-82 39 -170 104q-82 -66 -174 -104z" />
<glyph unicode="&#xd5;" d="M76 342q0 33 6 64l98 563q37 203 173 309t413 106q229 0 352 -109.5t123 -260.5q0 -31 -6 -62l-98 -557q-35 -207 -174.5 -311t-427.5 -104q-227 0 -343 105t-116 257zM381 375q0 -129 201 -129q227 0 258 176l92 520q4 29 4 41q0 135 -201 135q-225 0 -258 -176 l-92 -520q-4 -33 -4 -47zM434 1559q41 80 104.5 127t131.5 47q53 0 127.5 -46.5t105.5 -46.5q59 0 94 84l123 -61q-41 -96 -94 -146.5t-145 -50.5q-63 0 -126 45t-98 45q-47 0 -118 -92z" />
<glyph unicode="&#xd6;" d="M76 342q0 33 6 64l98 563q37 203 173 309t413 106q229 0 352 -109.5t123 -260.5q0 -31 -6 -62l-98 -557q-35 -207 -174.5 -311t-427.5 -104q-227 0 -343 105t-116 257zM381 375q0 -129 201 -129q227 0 258 176l92 520q4 29 4 41q0 135 -201 135q-225 0 -258 -176 l-92 -520q-4 -33 -4 -47zM463 1489l39 223h233l-39 -223h-233zM893 1489l39 223h233l-39 -223h-233z" />
<glyph unicode="&#xd7;" horiz-adv-x="991" d="M123 274l211 213l-211 213l162 164l211 -213l211 213l161 -164l-211 -213l211 -213l-161 -163l-211 213l-211 -213z" />
<glyph unicode="&#xd8;" d="M4 -47l143 184q-66 86 -65 205q0 33 6 64l98 563q37 203 173.5 309t412.5 106q174 0 297 -71l137 174l97 -76l-140 -176q84 -100 84 -221q0 -31 -6 -62l-98 -557q-35 -207 -174.5 -311t-427.5 -104q-180 0 -301 73l-138 -176zM397 455l494 630q-49 33 -150 33 q-225 0 -258 -176zM422 287q47 -41 166 -41q227 0 258 176l92 520v4z" />
<glyph unicode="&#xd9;" horiz-adv-x="1273" d="M94 326q0 35 6 69l170 969h301l-163 -928q-6 -35 -7 -63q0 -66 42 -96.5t145 -30.5q117 0 172 44t71 134l166 940h301l-170 -969q-16 -94 -48.5 -162.5t-95 -129t-170 -92t-257.5 -31.5q-231 0 -347 99.5t-116 246.5zM571 1632l125 148q82 -86 228 -197l-109 -135 q-115 67 -244 184z" />
<glyph unicode="&#xda;" horiz-adv-x="1273" d="M94 326q0 35 6 69l170 969h301l-163 -928q-6 -35 -7 -63q0 -66 42 -96.5t145 -30.5q117 0 172 44t71 134l166 940h301l-170 -969q-16 -94 -48.5 -162.5t-95 -129t-170 -92t-257.5 -31.5q-231 0 -347 99.5t-116 246.5zM645 1599q147 80 293 181l92 -168 q-135 -96 -301 -164z" />
<glyph unicode="&#xdb;" horiz-adv-x="1273" d="M94 326q0 35 6 69l170 969h301l-163 -928q-6 -35 -7 -63q0 -66 42 -96.5t145 -30.5q117 0 172 44t71 134l166 940h301l-170 -969q-16 -94 -48.5 -162.5t-95 -129t-170 -92t-257.5 -31.5q-231 0 -347 99.5t-116 246.5zM561 1587q160 90 291 185q74 -84 223 -197l-90 -123 q-82 39 -170 104q-82 -66 -174 -104z" />
<glyph unicode="&#xdc;" horiz-adv-x="1273" d="M94 326q0 35 6 69l170 969h301l-163 -928q-6 -35 -7 -63q0 -66 42 -96.5t145 -30.5q117 0 172 44t71 134l166 940h301l-170 -969q-16 -94 -48.5 -162.5t-95 -129t-170 -92t-257.5 -31.5q-231 0 -347 99.5t-116 246.5zM467 1489l39 223h233l-39 -223h-233zM897 1489 l39 223h233l-39 -223h-233z" />
<glyph unicode="&#xdd;" horiz-adv-x="1095" d="M121 1364h305l152 -631l358 631h346l-606 -971l-68 -393h-303l68 393zM549 1599q147 80 293 181l92 -168q-135 -96 -301 -164z" />
<glyph unicode="&#xde;" horiz-adv-x="1216" d="M41 0l238 1364h301l-37 -217h219q217 0 325.5 -80t108.5 -227q0 -31 -12 -105l-27 -153q-25 -135 -73 -214t-154.5 -124t-282.5 -45h-272l-35 -199h-299zM422 459h250q98 0 136 33.5t52 117.5l19 109q6 37 6 59q0 102 -133 103h-256z" />
<glyph unicode="&#xdf;" horiz-adv-x="1206" d="M-82 -252q70 72 93.5 121t37.5 131l187 1063q37 207 136 295t349 88q182 0 292.5 -78t110.5 -203q0 -158 -120 -307q-80 -98 -96.5 -123.5t-16.5 -48.5q0 -33 92 -133q78 -84 104.5 -126t26.5 -83q0 -176 -84 -270t-280 -94q-131 0 -246 34l45 213q82 -20 184 -20 q98 0 98 74q0 4 -1 7t-3 7l-4 8q-2 4 -8 10l-11 12q-5 5 -14.5 15t-18.5 19l-25 25l-29 30q-121 121 -121 204q0 74 22.5 125.5t94.5 141.5q72 88 96.5 136t24.5 97q0 88 -132 88q-92 0 -127.5 -32.5t-50.5 -114.5l-190 -1092q-18 -109 -67.5 -194.5t-162.5 -196.5z" />
<glyph unicode="&#xe0;" horiz-adv-x="1079" d="M70 334l47 268q16 98 44.5 166t86 128t156 90t241.5 30q182 0 381 -62l-166 -954h-244l-8 86q-139 -106 -317 -106q-156 0 -204 88t-17 266zM354 303q-6 -41 6.5 -57.5t49.5 -16.5q102 0 219 99l76 432q-49 10 -113 10q-53 0 -89 -11t-54.5 -39t-26.5 -51.5t-16 -68.5z M430 1315l125 147q104 -109 256 -225l-109 -135q-151 98 -272 213z" />
<glyph unicode="&#xe1;" horiz-adv-x="1079" d="M70 334l47 268q16 98 44.5 166t86 128t156 90t241.5 30q182 0 381 -62l-166 -954h-244l-8 86q-139 -106 -317 -106q-156 0 -204 88t-17 266zM354 303q-6 -41 6.5 -57.5t49.5 -16.5q102 0 219 99l76 432q-49 10 -113 10q-53 0 -89 -11t-54.5 -39t-26.5 -51.5t-16 -68.5z M498 1253q154 84 336 209l92 -168q-141 -96 -344 -192z" />
<glyph unicode="&#xe2;" horiz-adv-x="1079" d="M70 334l47 268q16 98 44.5 166t86 128t156 90t241.5 30q182 0 381 -62l-166 -954h-244l-8 86q-139 -106 -317 -106q-156 0 -204 88t-17 266zM354 303q-6 -41 6.5 -57.5t49.5 -16.5q102 0 219 99l76 432q-49 10 -113 10q-53 0 -89 -11t-54.5 -39t-26.5 -51.5t-16 -68.5z M395 1225q178 109 332 221q96 -117 240 -234l-90 -122q-94 49 -189 135q-92 -72 -213 -135z" />
<glyph unicode="&#xe3;" horiz-adv-x="1079" d="M70 334l47 268q16 98 44.5 166t86 128t156 90t241.5 30q182 0 381 -62l-166 -954h-244l-8 86q-139 -106 -317 -106q-156 0 -204 88t-17 266zM340 1210q41 80 104.5 127t130.5 47q53 0 128 -46t106 -46q59 0 94 84l123 -61q-41 -96 -94 -146.5t-146 -50.5q-63 0 -125.5 45 t-97.5 45q-47 0 -119 -92zM354 303q-6 -41 6.5 -57.5t49.5 -16.5q102 0 219 99l76 432q-49 10 -113 10q-53 0 -89 -11t-54.5 -39t-26.5 -51.5t-16 -68.5z" />
<glyph unicode="&#xe4;" horiz-adv-x="1079" d="M70 334l47 268q16 98 44.5 166t86 128t156 90t241.5 30q182 0 381 -62l-166 -954h-244l-8 86q-139 -106 -317 -106q-156 0 -204 88t-17 266zM352 1133l43 241l228 10l-41 -241zM354 303q-6 -41 6.5 -57.5t49.5 -16.5q102 0 219 99l76 432q-49 10 -113 10q-53 0 -89 -11 t-54.5 -39t-26.5 -51.5t-16 -68.5zM758 1133l43 241l227 10l-41 -241z" />
<glyph unicode="&#xe5;" horiz-adv-x="1079" d="M70 334l47 268q16 98 44.5 166t86 128t156 90t241.5 30q182 0 381 -62l-166 -954h-244l-8 86q-139 -106 -317 -106q-156 0 -204 88t-17 266zM354 303q-6 -41 6.5 -57.5t49.5 -16.5q102 0 219 99l76 432q-49 10 -113 10q-53 0 -89 -11t-54.5 -39t-26.5 -51.5t-16 -68.5z M514 1266q0 102 62.5 163.5t168.5 61.5q78 0 122 -44t44 -108q0 -98 -59 -163.5t-172 -65.5q-72 0 -119 44t-47 112zM631 1280q0 -68 65 -68q43 0 71 31t28 78q0 68 -66 68q-41 0 -69.5 -32t-28.5 -77z" />
<glyph unicode="&#xe6;" horiz-adv-x="1476" d="M35 240q0 319 350 319h217l14 82q6 35 7 57q0 47 -34 65.5t-128 18.5q-123 0 -283 -30l-28 211q182 55 364 55q203 0 274 -111q104 111 295 111q162 0 252 -78t90 -215q0 -76 -23.5 -132t-82.5 -106.5t-176 -82t-289 -42.5l-8 -47q-4 -20 -4 -32q0 -68 90 -68 q182 0 385 90l55 -209q-96 -53 -226 -84.5t-247 -31.5q-190 0 -281 106q-123 -106 -301 -106q-135 0 -208.5 74.5t-73.5 185.5zM307 266q0 -72 78 -71q92 0 174 49v30q0 39 8 86h-127q-133 0 -133 -94zM889 561q166 16 223 51t57 105q0 76 -106 76q-133 0 -158 -142z" />
<glyph unicode="&#xe7;" horiz-adv-x="854" d="M57 233q0 59 17 152l49 250q43 217 150.5 300t330.5 83q127 0 232 -41l-70 -234q-86 29 -166 29q-96 0 -137 -33.5t-57 -122.5l-54 -303q-4 -25 -4 -39q0 -49 53 -49q72 0 281 62l27 -232q-117 -57 -271 -71l-28 -84q41 6 67 6q57 0 86 -35t29 -82q0 -193 -258 -192 q-68 0 -146 30l33 107q59 -18 117 -19q111 0 111 64q0 37 -43 37q-57 0 -111 -4l-33 32l53 138q-135 10 -196.5 70t-61.5 181z" />
<glyph unicode="&#xe8;" horiz-adv-x="946" d="M51 240q0 55 12 120l50 281q33 188 134 282.5t324 94.5q147 0 239.5 -64.5t92.5 -185.5q0 -143 -79 -222t-267 -136q-109 -33 -209 -60l-12 -69q-12 -70 51 -70q139 0 391 111l56 -205q-94 -59 -227.5 -98t-260.5 -39q-295 0 -295 260zM340 1315l125 147 q104 -109 256 -225l-109 -135q-151 98 -272 213zM389 584q96 25 131 34q115 33 115 119q0 57 -84 58q-72 0 -104.5 -36t-45.5 -106z" />
<glyph unicode="&#xe9;" horiz-adv-x="946" d="M51 240q0 55 12 120l50 281q33 188 134 282.5t324 94.5q147 0 239.5 -64.5t92.5 -185.5q0 -143 -79 -222t-267 -136q-109 -33 -209 -60l-12 -69q-12 -70 51 -70q139 0 391 111l56 -205q-94 -59 -227.5 -98t-260.5 -39q-295 0 -295 260zM389 584q96 25 131 34 q115 33 115 119q0 57 -84 58q-72 0 -104.5 -36t-45.5 -106zM420 1253q154 84 336 209l92 -168q-141 -96 -344 -192z" />
<glyph unicode="&#xea;" horiz-adv-x="946" d="M51 240q0 55 12 120l50 281q33 188 134 282.5t324 94.5q147 0 239.5 -64.5t92.5 -185.5q0 -143 -79 -222t-267 -136q-109 -33 -209 -60l-12 -69q-12 -70 51 -70q139 0 391 111l56 -205q-94 -59 -227.5 -98t-260.5 -39q-295 0 -295 260zM311 1225q178 109 332 221 q96 -117 240 -234l-90 -122q-94 49 -189 135q-92 -72 -213 -135zM389 584q96 25 131 34q115 33 115 119q0 57 -84 58q-72 0 -104.5 -36t-45.5 -106z" />
<glyph unicode="&#xeb;" horiz-adv-x="946" d="M51 240q0 55 12 120l50 281q33 188 134 282.5t324 94.5q147 0 239.5 -64.5t92.5 -185.5q0 -143 -79 -222t-267 -136q-109 -33 -209 -60l-12 -69q-12 -70 51 -70q139 0 391 111l56 -205q-94 -59 -227.5 -98t-260.5 -39q-295 0 -295 260zM291 1133l43 241l227 10l-41 -241z M389 584q96 25 131 34q115 33 115 119q0 57 -84 58q-72 0 -104.5 -36t-45.5 -106zM696 1133l43 241l228 10l-41 -241z" />
<glyph unicode="&#xec;" horiz-adv-x="555" d="M41 0l172 975l297 41l-180 -1016h-289zM106 1315l125 147q104 -109 256 -225l-108 -135q-152 98 -273 213z" />
<glyph unicode="&#xed;" horiz-adv-x="555" d="M41 0l172 975l297 41l-180 -1016h-289zM260 1253q154 84 336 209l92 -168q-141 -96 -344 -192z" />
<glyph unicode="&#xee;" horiz-adv-x="555" d="M41 0l172 975l297 41l-180 -1016h-289zM115 1225q178 109 331 221q96 -117 240 -234l-90 -122q-94 49 -188 135q-92 -72 -213 -135z" />
<glyph unicode="&#xef;" horiz-adv-x="555" d="M41 0l172 975l297 41l-180 -1016h-289zM72 1133l43 241l227 10l-41 -241zM477 1133l43 241l228 10l-41 -241z" />
<glyph unicode="&#xf0;" horiz-adv-x="1003" d="M61 254q0 41 11 98l14 82q33 186 118 264t267 78q113 0 195 -33l6 37q8 41 8 82q0 104 -76 162l-172 -143l-70 88l146 121q-92 41 -229 67l57 227q254 -33 389 -114l119 100l71 -86l-98 -84q145 -135 146 -344q0 -49 -15 -135l-65 -369q-16 -96 -42 -158.5t-77 -114.5 t-137 -75.5t-213 -23.5q-353 0 -353 274zM342 287q0 -37 24.5 -51.5t86.5 -14.5q74 0 102.5 27.5t40.5 103.5l27 154q-63 31 -146 31q-49 0 -74.5 -21.5t-35.5 -79.5l-21 -110q-4 -29 -4 -39z" />
<glyph unicode="&#xf1;" horiz-adv-x="1120" d="M41 0l170 973l254 43l-2 -111q238 113 393 113q182 0 182 -203q0 -51 -10 -115l-123 -700h-289l119 678q4 25 4 31q0 29 -39 28q-80 0 -258 -94l-112 -643h-289zM322 1210q41 80 104 127t131 47q53 0 128 -46t106 -46q59 0 94 84l123 -61q-41 -96 -94.5 -146.5 t-145.5 -50.5q-63 0 -125.5 45t-97.5 45q-47 0 -119 -92z" />
<glyph unicode="&#xf2;" horiz-adv-x="1064" d="M51 313q0 35 6 70l41 231q37 205 153 304.5t365 99.5q190 0 290 -94.5t100 -237.5q0 -35 -7 -72l-41 -231q-35 -199 -150.5 -301t-369.5 -102q-182 0 -284.5 95t-102.5 238zM342 334q0 -113 139 -113q162 0 189 154l43 248q4 29 4 41q0 113 -139 112q-164 0 -189 -153 l-43 -248q-4 -29 -4 -41zM389 1315l125 147q104 -109 256 -225l-108 -135q-152 98 -273 213z" />
<glyph unicode="&#xf3;" horiz-adv-x="1064" d="M51 313q0 35 6 70l41 231q37 205 153 304.5t365 99.5q190 0 290 -94.5t100 -237.5q0 -35 -7 -72l-41 -231q-35 -199 -150.5 -301t-369.5 -102q-182 0 -284.5 95t-102.5 238zM342 334q0 -113 139 -113q162 0 189 154l43 248q4 29 4 41q0 113 -139 112q-164 0 -189 -153 l-43 -248q-4 -29 -4 -41zM492 1253q154 84 335 209l93 -168q-141 -96 -345 -192z" />
<glyph unicode="&#xf4;" horiz-adv-x="1064" d="M51 313q0 35 6 70l41 231q37 205 153 304.5t365 99.5q190 0 290 -94.5t100 -237.5q0 -35 -7 -72l-41 -231q-35 -199 -150.5 -301t-369.5 -102q-182 0 -284.5 95t-102.5 238zM342 334q0 -113 139 -113q162 0 189 154l43 248q4 29 4 41q0 113 -139 112q-164 0 -189 -153 l-43 -248q-4 -29 -4 -41zM362 1225q178 109 332 221q96 -117 240 -234l-90 -122q-94 49 -189 135q-92 -72 -213 -135z" />
<glyph unicode="&#xf5;" horiz-adv-x="1064" d="M51 313q0 35 6 70l41 231q37 205 153 304.5t365 99.5q190 0 290 -94.5t100 -237.5q0 -35 -7 -72l-41 -231q-35 -199 -150.5 -301t-369.5 -102q-182 0 -284.5 95t-102.5 238zM305 1210q41 80 104.5 127t131.5 47q53 0 127.5 -46t105.5 -46q59 0 94 84l123 -61 q-41 -96 -94 -146.5t-145 -50.5q-63 0 -126 45t-98 45q-47 0 -118 -92zM342 334q0 -113 139 -113q162 0 189 154l43 248q4 29 4 41q0 113 -139 112q-164 0 -189 -153l-43 -248q-4 -29 -4 -41z" />
<glyph unicode="&#xf6;" horiz-adv-x="1064" d="M51 313q0 35 6 70l41 231q37 205 153 304.5t365 99.5q190 0 290 -94.5t100 -237.5q0 -35 -7 -72l-41 -231q-35 -199 -150.5 -301t-369.5 -102q-182 0 -284.5 95t-102.5 238zM328 1133l43 241l227 10l-41 -241zM342 334q0 -113 139 -113q162 0 189 154l43 248q4 29 4 41 q0 113 -139 112q-164 0 -189 -153l-43 -248q-4 -29 -4 -41zM733 1133l43 241l228 10l-41 -241z" />
<glyph unicode="&#xf7;" horiz-adv-x="1075" d="M113 410v180h839v-180h-839zM399 0v272h267v-272h-267zM399 725v272h267v-272h-267z" />
<glyph unicode="&#xf8;" horiz-adv-x="1064" d="M0 -37l123 141q-72 88 -72 209q0 35 6 70l41 231q37 205 153 304.5t365 99.5q150 0 250 -64l127 146l74 -66l-129 -145q68 -86 68 -203q0 -35 -7 -72l-41 -231q-35 -199 -150.5 -301t-369.5 -102q-145 0 -241 61l-125 -141zM342 356l342 389q-33 31 -106 31 q-164 0 -189 -153l-43 -248q-2 -2 -2 -8.5t-2 -10.5zM377 248q33 -27 104 -27q162 0 189 154l43 248v4q2 4 2 6z" />
<glyph unicode="&#xf9;" horiz-adv-x="1122" d="M74 182q0 47 10 115l119 678l295 41l-121 -694q-4 -20 -4 -31q0 -31 39 -31q70 0 258 94l108 621l297 41l-178 -1016h-246l-2 92q-238 -113 -393 -112q-182 -1 -182 202zM414 1315l125 147q104 -109 256 -225l-109 -135q-151 98 -272 213z" />
<glyph unicode="&#xfa;" horiz-adv-x="1122" d="M74 182q0 47 10 115l119 678l295 41l-121 -694q-4 -20 -4 -31q0 -31 39 -31q70 0 258 94l108 621l297 41l-178 -1016h-246l-2 92q-238 -113 -393 -112q-182 -1 -182 202zM498 1253q154 84 336 209l92 -168q-141 -96 -344 -192z" />
<glyph unicode="&#xfb;" horiz-adv-x="1122" d="M74 182q0 47 10 115l119 678l295 41l-121 -694q-4 -20 -4 -31q0 -31 39 -31q70 0 258 94l108 621l297 41l-178 -1016h-246l-2 92q-238 -113 -393 -112q-182 -1 -182 202zM410 1225q178 109 331 221q96 -117 240 -234l-90 -122q-94 49 -189 135q-92 -72 -213 -135z" />
<glyph unicode="&#xfc;" horiz-adv-x="1122" d="M74 182q0 47 10 115l119 678l295 41l-121 -694q-4 -20 -4 -31q0 -31 39 -31q70 0 258 94l108 621l297 41l-178 -1016h-246l-2 92q-238 -113 -393 -112q-182 -1 -182 202zM356 1133l43 241l228 10l-41 -241zM762 1133l43 241l227 10l-41 -241z" />
<glyph unicode="&#xfd;" horiz-adv-x="978" d="M35 -215q201 76 295 215h-92l-138 967l289 41l76 -744l209 498q25 66 24 127q0 41 -10 86l281 41q14 -49 14 -121q0 -104 -33 -180l-321 -715q-92 -182 -196.5 -277.5t-323.5 -164.5zM383 1253q154 84 336 209l92 -168q-141 -96 -344 -192z" />
<glyph unicode="&#xfe;" horiz-adv-x="1085" d="M-37 -444l324 1849l297 41l-90 -516q121 88 292 88q158 0 210.5 -89t21.5 -265l-47 -269q-12 -68 -24.5 -113.5t-36 -98t-59.5 -85t-89 -62.5t-132 -43t-181 -13q-76 0 -121 10l-70 -393zM371 229q43 -8 112 -8q102 0 142.5 45t56.5 131l53 301q14 78 -55 78 q-117 0 -231 -102z" />
<glyph unicode="&#xff;" horiz-adv-x="978" d="M35 -215q201 76 295 215h-92l-138 967l289 41l76 -744l209 498q25 66 24 127q0 41 -10 86l281 41q14 -49 14 -121q0 -104 -33 -180l-321 -715q-92 -182 -196.5 -277.5t-323.5 -164.5zM252 1133l43 241l227 10l-41 -241zM657 1133l43 241l228 10l-41 -241z" />
<glyph unicode="&#x152;" horiz-adv-x="1800" d="M80 362q0 33 6 64l92 522q37 203 173 309.5t413 106.5h1085l-47 -266h-557l-45 -260h514l-47 -265h-514l-55 -307h557l-45 -266h-1071q-227 0 -343 105t-116 257zM385 395q0 -129 201 -129h213l145 832h-211q-225 0 -258 -176l-86 -480q-4 -33 -4 -47z" />
<glyph unicode="&#x153;" horiz-adv-x="1574" d="M51 313q0 35 6 70l41 231q25 135 75 220.5t156.5 134.5t276.5 49q164 0 275 -96q127 96 297 96q166 0 261 -80t95 -219q0 -57 -12.5 -102.5t-32 -79t-61.5 -59t-79.5 -43t-108.5 -34t-129 -26.5t-159 -25q-10 -55 -10 -67q0 -68 90 -68q182 0 385 90l56 -209 q-211 -117 -457 -116q-172 0 -266 88q-156 -88 -312 -88q-190 0 -288.5 94t-98.5 239zM342 334q0 -113 139 -113q162 0 189 154l43 248q4 29 4 41q0 113 -139 112q-164 0 -189 -153l-43 -248q-4 -29 -4 -41zM993 584q25 4 65 8t68 8q82 10 113 37t31 80q0 76 -117 76 q-72 0 -103.5 -37t-43.5 -105q-9 -38 -13 -67z" />
<glyph unicode="&#x178;" horiz-adv-x="1095" d="M121 1364h305l152 -631l358 631h346l-606 -971l-68 -393h-303l68 393zM377 1489l39 223h233l-39 -223h-233zM807 1489l39 223h233l-39 -223h-233z" />
<glyph unicode="&#x2c6;" horiz-adv-x="765" d="M215 1225q178 109 332 221q96 -117 239 -234l-90 -122q-94 49 -188 135q-92 -72 -213 -135z" />
<glyph unicode="&#x2dc;" horiz-adv-x="880" d="M215 1210q41 80 104.5 127t131.5 47q53 0 127.5 -46t105.5 -46q59 0 94 84l123 -61q-41 -96 -94 -146.5t-145 -50.5q-63 0 -126 45t-98 45q-47 0 -119 -92z" />
<glyph unicode="&#x2000;" horiz-adv-x="897" />
<glyph unicode="&#x2001;" horiz-adv-x="1794" />
<glyph unicode="&#x2002;" horiz-adv-x="897" />
<glyph unicode="&#x2003;" horiz-adv-x="1794" />
<glyph unicode="&#x2004;" horiz-adv-x="598" />
<glyph unicode="&#x2005;" horiz-adv-x="448" />
<glyph unicode="&#x2006;" horiz-adv-x="299" />
<glyph unicode="&#x2007;" horiz-adv-x="299" />
<glyph unicode="&#x2008;" horiz-adv-x="223" />
<glyph unicode="&#x2009;" horiz-adv-x="358" />
<glyph unicode="&#x200a;" horiz-adv-x="98" />
<glyph unicode="&#x2010;" horiz-adv-x="684" d="M70 451l43 245h520l-43 -245h-520z" />
<glyph unicode="&#x2011;" horiz-adv-x="684" d="M70 451l43 245h520l-43 -245h-520z" />
<glyph unicode="&#x2012;" horiz-adv-x="684" d="M70 451l43 245h520l-43 -245h-520z" />
<glyph unicode="&#x2013;" horiz-adv-x="929" d="M70 451l43 245h766l-43 -245h-766z" />
<glyph unicode="&#x2014;" horiz-adv-x="1236" d="M70 451l43 245h1073l-43 -245h-1073z" />
<glyph unicode="&#x2018;" horiz-adv-x="550" d="M174 797l66 364l227 283l104 -84l-157 -223h108l-59 -340h-289z" />
<glyph unicode="&#x2019;" horiz-adv-x="550" d="M184 842l158 223h-109l60 340h289l-66 -365l-227 -282z" />
<glyph unicode="&#x201a;" horiz-adv-x="561" d="M0 -223l158 223h-109l60 340h288l-65 -365l-228 -282z" />
<glyph unicode="&#x201c;" horiz-adv-x="995" d="M174 797l66 364l227 283l104 -84l-157 -223h108l-59 -340h-289zM618 797l66 364l227 283l105 -84l-158 -223h109l-60 -340h-289z" />
<glyph unicode="&#x201d;" horiz-adv-x="995" d="M184 842l158 223h-109l60 340h289l-66 -365l-227 -282zM629 842l157 223h-108l59 340h289l-65 -365l-228 -282z" />
<glyph unicode="&#x201e;" horiz-adv-x="1005" d="M0 -223l158 223h-109l60 340h288l-65 -365l-228 -282zM444 -223l158 223h-108l59 340h289l-66 -365l-227 -282z" />
<glyph unicode="&#x2022;" horiz-adv-x="724" d="M113 661.5q0 114.5 78.5 194.5t191.5 80t191.5 -80t78.5 -194.5t-78.5 -194.5t-191.5 -80t-191.5 80t-78.5 194.5z" />
<glyph unicode="&#x2026;" horiz-adv-x="1695" d="M49 0l60 340h288l-59 -340h-289zM614 0l60 340h289l-60 -340h-289zM1180 0l59 340h289l-60 -340h-288z" />
<glyph unicode="&#x202f;" horiz-adv-x="358" />
<glyph unicode="&#x2039;" horiz-adv-x="573" d="M51 500l314 393l174 -145l-211 -248l118 -293l-202 -101z" />
<glyph unicode="&#x203a;" horiz-adv-x="571" d="M45 252l211 248l-119 293l203 100l192 -393l-313 -394z" />
<glyph unicode="&#x205f;" horiz-adv-x="448" />
<glyph unicode="&#x20ac;" horiz-adv-x="1073" d="M31 438l28 156h160l25 135h-164l29 156h163l15 86q61 373 506 372q172 0 352 -53l-55 -243q-141 39 -295 38q-104 0 -150.5 -30.5t-60.5 -114.5l-11 -55h332l-28 -156h-330l-25 -135h334l-29 -156h-331l-11 -61q-2 -12 -2 -31q0 -57 39 -82.5t133 -25.5q129 0 283 32 l12 -243q-145 -47 -340 -47q-215 0 -323.5 90t-108.5 241q0 47 6 80l9 47h-162z" />
<glyph unicode="&#x2122;" horiz-adv-x="927" d="M164 1280v84h311v-84h-110v-334h-93v334h-108zM535 946l16 418h92l98 -264l97 264h94l16 -418h-88l-4 246l-72 -191h-88l-71 187l-4 -242h-86z" />
<glyph unicode="&#xe000;" horiz-adv-x="1014" d="M0 1015h1015v-1015h-1015v1015z" />
<glyph unicode="&#xfb01;" horiz-adv-x="1288" d="M-41 -252q70 72 93.5 121t37.5 131l135 762h-143l41 235h143l27 142q33 174 108.5 245.5t253.5 71.5q158 0 355 -70l-62 -212q-160 49 -256 49q-55 0 -77.5 -14.5t-30.5 -53.5l-29 -158h551l137 19l-180 -1016h-289l133 762h-393l-139 -795q-18 -109 -67.5 -194.5 t-162.5 -196.5z" />
<glyph unicode="&#xfb02;" horiz-adv-x="1290" d="M-41 -252q70 72 93.5 121t37.5 131l135 762h-143l41 235h143l23 131q31 176 112.5 247t270.5 71q172 0 348 -49l299 49l-254 -1446h-289l205 1174q-139 37 -303 36q-49 0 -68.5 -14t-27.5 -53l-27 -146h258l-61 -235h-238l-139 -795q-18 -109 -67.5 -194.5t-162.5 -196.5 z" />
<glyph unicode="&#xfb03;" horiz-adv-x="2021" d="M1507 0l172 975l297 41l-180 -1016h-289zM1704 1108l53 307l297 41l-56 -307zM692 -252q70 72 93.5 121t37.5 131l135 762h-143l41 235h143l25 131q33 172 108.5 245t251.5 73q139 0 256 -43l-59 -227q-84 31 -170 30q-49 0 -68.5 -14t-27.5 -53l-27 -142h258l-61 -235 h-238l-139 -795q-18 -109 -67.5 -194.5t-162.5 -196.5zM-41 -252q70 72 93.5 121t37.5 131l135 762h-143l41 235h143l25 131q33 172 108.5 245t251.5 73q139 0 256 -43l-59 -227q-84 31 -170 30q-49 0 -68.5 -14t-27.5 -53l-27 -142h258l-61 -235h-238l-139 -795 q-18 -109 -67.5 -194.5t-162.5 -196.5z" />
<glyph unicode="&#xfb04;" horiz-adv-x="2021" d="M1507 0l246 1405l297 41l-254 -1446h-289zM692 -252q70 72 93.5 121t37.5 131l135 762h-143l41 235h143l25 131q33 172 108.5 245t251.5 73q139 0 256 -43l-59 -227q-84 31 -170 30q-49 0 -68.5 -14t-27.5 -53l-27 -142h258l-61 -235h-238l-139 -795 q-18 -109 -67.5 -194.5t-162.5 -196.5zM-41 -252q70 72 93.5 121t37.5 131l135 762h-143l41 235h143l25 131q33 172 108.5 245t251.5 73q139 0 256 -43l-59 -227q-84 31 -170 30q-49 0 -68.5 -14t-27.5 -53l-27 -142h258l-61 -235h-238l-139 -795q-18 -109 -67.5 -194.5 t-162.5 -196.5z" />
</font>
</defs>
</svg>
